<svg xmlns="http://www.w3.org/2000/svg" viewBox="0 0 910.95 251.1"><defs><style>.cls-1{fill:#3a3a3a;}.cls-2{fill:#dd2a1b;fill-rule:evenodd;}</style></defs><g id="Layer_2" data-name="Layer 2"><g id="Layer_1-2" data-name="Layer 1"><path class="cls-1" d="M169.33,134.35a29,29,0,0,1,2.38-11.69,30.53,30.53,0,0,1,16-16,29,29,0,0,1,11.68-2.37,30.09,30.09,0,0,1,11.87,2.37,32.46,32.46,0,0,1,9.84,6.47,30.71,30.71,0,0,1,6.72,9.58,28.06,28.06,0,0,1,2.48,11.69v22.83a8.15,8.15,0,0,1-.64,3.27,8,8,0,0,1-4.39,4.34,8.43,8.43,0,0,1-3.24.63,8.87,8.87,0,0,1-3.35-.63,8.6,8.6,0,0,1-2.73-1.74,8.12,8.12,0,0,1-1.85-2.6,8,8,0,0,1-.67-3.27V134.42a12.12,12.12,0,0,0-1.24-5.14,14,14,0,0,0-3.14-4.21,15.35,15.35,0,0,0-4.48-2.86,13.47,13.47,0,0,0-5.25-1,13.18,13.18,0,0,0-5.11,1,12.43,12.43,0,0,0-4.13,2.72,13.58,13.58,0,0,0-2.8,4.09A13,13,0,0,0,186.2,134v23.14a8.32,8.32,0,0,1-.63,3.27,8.05,8.05,0,0,1-1.77,2.6,8.56,8.56,0,0,1-2.62,1.74,8.11,8.11,0,0,1-3.19.63,8.79,8.79,0,0,1-3.29-.63,9,9,0,0,1-2.78-1.74,8.24,8.24,0,0,1-1.89-2.6,7.56,7.56,0,0,1-.7-3.27Z"/><path class="cls-1" d="M269.64,166.12a29.71,29.71,0,0,1-12-2.44,31.9,31.9,0,0,1-9.83-6.63,31.12,31.12,0,0,1-6.66-9.79,30.88,30.88,0,0,1,0-24.06,31.27,31.27,0,0,1,16.49-16.52,30.73,30.73,0,0,1,23.93,0,31.53,31.53,0,0,1,9.77,6.53,31.16,31.16,0,0,1,6.66,9.7,30.55,30.55,0,0,1,2.6,11.86V157.5a8.57,8.57,0,0,1-8.63,8.62,8,8,0,0,1-7.1-4,32.59,32.59,0,0,1-7.23,3A30.28,30.28,0,0,1,269.64,166.12Zm0-16.93a14.09,14.09,0,0,0,5.5-1.08,13.73,13.73,0,0,0,4.48-3,14.21,14.21,0,0,0,3-4.43,14,14,0,0,0,0-10.91,14.38,14.38,0,0,0-3-4.44,13.88,13.88,0,0,0-4.48-3,14.09,14.09,0,0,0-5.5-1.08,13.63,13.63,0,0,0-5.4,1.08,14.18,14.18,0,0,0-7.53,7.42,14,14,0,0,0,0,10.91,14.21,14.21,0,0,0,7.53,7.41A13.63,13.63,0,0,0,269.61,149.19Z"/><path class="cls-1" d="M340,166.12a29.71,29.71,0,0,1-12-2.44,31.9,31.9,0,0,1-9.83-6.63,31.12,31.12,0,0,1-6.66-9.79,30.88,30.88,0,0,1,0-24.06A31.27,31.27,0,0,1,328,106.68a30.73,30.73,0,0,1,23.93,0,31.53,31.53,0,0,1,9.77,6.53,31.16,31.16,0,0,1,6.66,9.7,30.55,30.55,0,0,1,2.6,11.86V157.5a8.57,8.57,0,0,1-8.63,8.62,8,8,0,0,1-7.1-4,32.59,32.59,0,0,1-7.23,3A30.28,30.28,0,0,1,340,166.12Zm0-16.93a14.09,14.09,0,0,0,5.5-1.08,13.73,13.73,0,0,0,4.48-3,14.21,14.21,0,0,0,3-4.43,14,14,0,0,0,0-10.91,14.38,14.38,0,0,0-3-4.44,13.88,13.88,0,0,0-4.48-3,14.09,14.09,0,0,0-5.5-1.08,13.63,13.63,0,0,0-5.4,1.08,14.18,14.18,0,0,0-7.53,7.42,14,14,0,0,0,0,10.91,14.21,14.21,0,0,0,7.53,7.41A13.63,13.63,0,0,0,339.93,149.19Z"/><path class="cls-1" d="M382.19,126.94a21.82,21.82,0,0,1,1.81-8.82,23.88,23.88,0,0,1,4.88-7.23,22.7,22.7,0,0,1,7.2-4.88,22.08,22.08,0,0,1,8.81-1.77,21.48,21.48,0,0,1,7.8,1.39,25.34,25.34,0,0,1,6.66,3.81,25.49,25.49,0,0,1,6.63-3.81,21.15,21.15,0,0,1,7.76-1.39,23,23,0,0,1,8.94,1.77,23.87,23.87,0,0,1,7.46,4.88,24.17,24.17,0,0,1,5.1,7.23,20.78,20.78,0,0,1,1.9,8.82v30.18a8.24,8.24,0,0,1-.66,3.3,8.39,8.39,0,0,1-1.81,2.63,8.49,8.49,0,0,1-2.63,1.74,8.16,8.16,0,0,1-3.2.63,8.51,8.51,0,0,1-3.3-.63,8.29,8.29,0,0,1-2.66-1.74,8.21,8.21,0,0,1-2.48-5.93V127.44a4.82,4.82,0,0,0-.57-2.28,6.23,6.23,0,0,0-1.52-1.87,7.38,7.38,0,0,0-2.12-1.24,6.7,6.7,0,0,0-2.32-.44A5.8,5.8,0,0,0,430,123a5.66,5.66,0,0,0-2,3.58,2.92,2.92,0,0,0,0,.51,4.91,4.91,0,0,1,0,.57v12.93a8,8,0,0,1-.67,3.3,8.84,8.84,0,0,1-1.77,2.66A8.23,8.23,0,0,1,423,148.4a8.1,8.1,0,0,1-3.24.67,8.25,8.25,0,0,1-3.3-.67,8.59,8.59,0,0,1-2.66-1.81,8.77,8.77,0,0,1-1.81-2.66,8.21,8.21,0,0,1-.66-3.3V128.27a3.21,3.21,0,0,0-.13-.76v-.07a5.71,5.71,0,0,0-.47-2.28,6.42,6.42,0,0,0-1.3-1.9,6.28,6.28,0,0,0-1.91-1.3,5.55,5.55,0,0,0-2.28-.48,6.38,6.38,0,0,0-6.15,4.76q.06.32.09.6a3.86,3.86,0,0,1,0,.6l-.26,29.68a8.84,8.84,0,0,1-.73,3.3,8.46,8.46,0,0,1-1.77,2.63,8.13,8.13,0,0,1-5.8,2.37,8.51,8.51,0,0,1-3.3-.63,8.4,8.4,0,0,1-2.66-1.74,8.21,8.21,0,0,1-2.48-5.93Z"/><path class="cls-1" d="M515.22,98.47h-16.1a8.21,8.21,0,0,1-3.3-.67A8.59,8.59,0,0,1,493.16,96a8.18,8.18,0,0,1-1.78-2.66,8.51,8.51,0,0,1-.63-3.3,8.34,8.34,0,0,1,.63-3.23,8.07,8.07,0,0,1,1.78-2.66,8.42,8.42,0,0,1,2.66-1.81,8,8,0,0,1,3.3-.67h48.44a8.14,8.14,0,0,1,3.27.67,8.26,8.26,0,0,1,2.69,1.84,9,9,0,0,1,1.81,2.72,8.23,8.23,0,0,1-4.5,10.94,8.66,8.66,0,0,1-3.27.64H531.77v59.41a8.24,8.24,0,0,1-.66,3.3,8.16,8.16,0,0,1-1.84,2.63,8.83,8.83,0,0,1-6,2.38,8.17,8.17,0,0,1-3.21-.64,7.65,7.65,0,0,1-2.56-1.74,7.9,7.9,0,0,1-1.68-2.63,8.76,8.76,0,0,1-.61-3.3Z"/><path class="cls-1" d="M561.77,90.1a8.52,8.52,0,0,1,.72-3.52,9.77,9.77,0,0,1,2-2.86,8.89,8.89,0,0,1,2.88-1.93,9,9,0,0,1,6.95,0,9,9,0,0,1,2.87,1.93,9.77,9.77,0,0,1,2,2.86,8.53,8.53,0,0,1,.73,3.52,8.62,8.62,0,0,1-.73,3.48,9.65,9.65,0,0,1-2,2.89,9,9,0,0,1-2.87,1.93,9,9,0,0,1-6.95,0,8.89,8.89,0,0,1-2.88-1.93,9.65,9.65,0,0,1-2-2.89A8.61,8.61,0,0,1,561.77,90.1Zm.5,22.51a7.61,7.61,0,0,1,.7-3.24,8.74,8.74,0,0,1,1.86-2.66,8.94,8.94,0,0,1,2.75-1.81,8.59,8.59,0,0,1,3.35-.66,8,8,0,0,1,3.22.66,8.37,8.37,0,0,1,5,7.71v45.14a8.09,8.09,0,0,1-.66,3.24,8.92,8.92,0,0,1-1.8,2.66,8.77,8.77,0,0,1-2.66,1.81,8,8,0,0,1-3.22.66,8.18,8.18,0,0,1-3.25-.66,9,9,0,0,1-2.72-1.81A8.74,8.74,0,0,1,563,161a7.65,7.65,0,0,1-.7-3.24Z"/><path class="cls-1" d="M591.5,112.48a8.23,8.23,0,0,1,5.14-7.67,8.33,8.33,0,0,1,3.3-.64,8,8,0,0,1,3.2.64,8.13,8.13,0,0,1,2.6,1.74,8.66,8.66,0,0,1,1.78,2.63,9,9,0,0,1,.72,3.3l.26,30.43c0,.22,0,.43,0,.64s-.06.42-.1.63a6,6,0,0,0,2.22,3.36,6.21,6.21,0,0,0,3.93,1.33,5.49,5.49,0,0,0,2.44-.53,6,6,0,0,0,1.9-1.43,6.85,6.85,0,0,0,1.27-2.06,6.39,6.39,0,0,0,.48-2.44V129.73a8,8,0,0,1,.67-3.3,8.55,8.55,0,0,1,4.46-4.47,8.08,8.08,0,0,1,3.3-.67,7.93,7.93,0,0,1,3.24.67,8.08,8.08,0,0,1,2.63,1.81,8.71,8.71,0,0,1,1.77,2.66,8,8,0,0,1,.67,3.3v12.93a4.91,4.91,0,0,1,0,.57,3.32,3.32,0,0,0,0,.57,5.63,5.63,0,0,0,2,3.52,5.85,5.85,0,0,0,3.9,1.43,6.5,6.5,0,0,0,2.32-.45,7.13,7.13,0,0,0,2.12-1.23,6.36,6.36,0,0,0,1.52-1.84,4.77,4.77,0,0,0,.57-2.32V112.48a8.23,8.23,0,0,1,5.14-7.67,8.33,8.33,0,0,1,3.3-.64,8,8,0,0,1,3.2.64,8.49,8.49,0,0,1,2.63,1.74,8.39,8.39,0,0,1,1.81,2.63,8.24,8.24,0,0,1,.66,3.3v30.94a20.78,20.78,0,0,1-1.9,8.82,23.74,23.74,0,0,1-5.1,7.19,24.69,24.69,0,0,1-7.45,4.89,22.75,22.75,0,0,1-9,1.8,21.22,21.22,0,0,1-7.76-1.39,25.49,25.49,0,0,1-6.63-3.81,25.34,25.34,0,0,1-6.66,3.81,21.48,21.48,0,0,1-7.8,1.39,21.8,21.8,0,0,1-8.81-1.8,23.15,23.15,0,0,1-12.08-12.08,21.82,21.82,0,0,1-1.81-8.82Z"/><path class="cls-1" d="M703,166.12a29.76,29.76,0,0,1-12-2.44,31.9,31.9,0,0,1-9.83-6.63,31.12,31.12,0,0,1-6.66-9.79,30.88,30.88,0,0,1,0-24.06A31.27,31.27,0,0,1,691,106.68a30.76,30.76,0,0,1,23.94,0,31.48,31.48,0,0,1,9.76,6.53,31.16,31.16,0,0,1,6.66,9.7,30.37,30.37,0,0,1,2.6,11.86V157.5a8.37,8.37,0,0,1-.67,3.39,8.51,8.51,0,0,1-1.83,2.73,8.84,8.84,0,0,1-2.76,1.84,8.68,8.68,0,0,1-3.36.66,8.05,8.05,0,0,1-4.22-1.08,8,8,0,0,1-2.88-2.91,33,33,0,0,1-7.23,3A30.33,30.33,0,0,1,703,166.12Zm0-16.93a14,14,0,0,0,5.49-1.08,13.62,13.62,0,0,0,4.48-3,14.21,14.21,0,0,0,3-4.43,14,14,0,0,0,0-10.91,14.38,14.38,0,0,0-3-4.44,13.78,13.78,0,0,0-4.48-3,14,14,0,0,0-5.49-1.08,13.72,13.72,0,0,0-5.41,1.08,14.33,14.33,0,0,0-4.48,3,14.12,14.12,0,0,0-3,4.44,14,14,0,0,0,0,10.91,14,14,0,0,0,3,4.43,14.16,14.16,0,0,0,4.48,3A13.72,13.72,0,0,0,703,149.19Z"/><path class="cls-1" d="M745.21,135.81A31,31,0,0,1,748,123.64a32.91,32.91,0,0,1,17-16.77,31.72,31.72,0,0,1,12.21-2.63h.57a8.65,8.65,0,0,1,6.43,2.41,8.25,8.25,0,0,1,2.25,6,8.08,8.08,0,0,1-.69,3.36,8.94,8.94,0,0,1-1.87,2.66,8.59,8.59,0,0,1-2.79,1.78,9.29,9.29,0,0,1-3.4.63,15.15,15.15,0,0,0-6,1.2,16,16,0,0,0-4.94,3.3,16.29,16.29,0,0,0-3.4,4.91,15.44,15.44,0,0,0-1.33,6.06v20.61a8.58,8.58,0,0,1-.63,3.3,7.85,7.85,0,0,1-1.78,2.63,8.38,8.38,0,0,1-2.63,1.74,8.12,8.12,0,0,1-3.2.63,8.88,8.88,0,0,1-3.3-.63,8.37,8.37,0,0,1-4.63-4.37,7.93,7.93,0,0,1-.69-3.3Z"/><path class="cls-1" d="M792.38,112.61a7.9,7.9,0,0,1,.67-3.24,8.84,8.84,0,0,1,1.77-2.66,8.43,8.43,0,0,1,9.23-1.81,9.16,9.16,0,0,1,2.69,1.81,8.19,8.19,0,0,1,1.84,2.66,7.9,7.9,0,0,1,.67,3.24v23.65a13.08,13.08,0,0,0,1,5.16,12.53,12.53,0,0,0,7,6.85,13.69,13.69,0,0,0,5.26,1,12.58,12.58,0,0,0,5.2-1.08,12.82,12.82,0,0,0,4.15-2.92,13.58,13.58,0,0,0,2.76-4.28,13.43,13.43,0,0,0,1-5.23V112.61a7.35,7.35,0,0,1,.73-3.24,9.32,9.32,0,0,1,1.87-2.66,8.56,8.56,0,0,1,6-2.47,8,8,0,0,1,3.27.66,8.88,8.88,0,0,1,2.63,1.81,7.77,7.77,0,0,1,1.74,2.66,8.76,8.76,0,0,1,.6,3.24v23.46a30.11,30.11,0,0,1-1.61,9.86,29.42,29.42,0,0,1-4.54,8.43,30.66,30.66,0,0,1-6.91,6.53,30.13,30.13,0,0,1-8.69,4.15v13.83a9,9,0,0,1-.63,3.39,8.16,8.16,0,0,1-4.44,4.47,8.51,8.51,0,0,1-3.3.63,9,9,0,0,1-3.36-.63,8.2,8.2,0,0,1-2.75-1.78,7.74,7.74,0,0,1-1.81-2.69,9,9,0,0,1-.64-3.39v-14a30.39,30.39,0,0,1-8.62-4.25,30.84,30.84,0,0,1-6.78-6.56,29.73,29.73,0,0,1-4.44-8.37,29.4,29.4,0,0,1-1.59-9.67Z"/><path class="cls-2" d="M7.63,250.76c-7.71,3.6-7.71-22.38-7.61-26.7C2.33,176.82,36.71,44,68.15,10.07c15.75-16.9,32.93-11.7,40.39,9.44,4.63,13.31,10.08,46,12.25,64.51,1.8.33,3.55.61,5.25,1,14.1,2.88,42.09,11.32,53.77,18.16l5.66,4.12c-8.75-.57-5.1,0-13.43-1.8-14.72-3.17-32.73-7.26-50.12-9,2.16,29,3.6,91.23-31.49,93.14-28.2,1.54-48.17-40.6-46.31-66,2.31-29.77,24.75-40,49.4-41.24-2.57-21.51-5.87-45-8.91-55.21-1,1.05-2,2.23-2.72,3.11C54.87,63.66,16.38,180.68,8,225c-1.5,7.88-4.22,18.37-.32,25.78ZM95.06,96.44c-2.93.39-5.66.9-8.33,1.52-29.39,7.26-28.87,33.24-15.13,54.67,2.62,4,13,16.67,17.8,14.46,8.08-3.86,8.34-35.61,7.87-44-.1-4.3-1-14.33-2.21-26.66Zm-7-72.35c0-.05.16-.07.21-.12s-.16.07-.21.12Z"/><path d="M852.55,70.43a29.2,29.2,0,1,1,29.17,29.21A29.19,29.19,0,0,1,852.55,70.43Zm29.21-23.26A23.27,23.27,0,1,0,905,70.44,23.25,23.25,0,0,0,881.76,47.17Z"/><path d="M876.84,73.52V85H869V54.5h12.29a18.74,18.74,0,0,1,6.6,1,6.88,6.88,0,0,1,4.72,6.55,9.66,9.66,0,0,1-.57,4.36,7.51,7.51,0,0,1-4.74,4.19l-.46.17a7.58,7.58,0,0,1,4.65,4.2c1.7,3.25,3.3,6.55,4.95,9.83a2.46,2.46,0,0,1,.07.24l-.44,0h-7.46a.59.59,0,0,1-.63-.39c-1.22-2.5-2.45-5-3.7-7.5a14.38,14.38,0,0,0-.89-1.52,4.5,4.5,0,0,0-3.66-2.13C878.78,73.47,877.84,73.52,876.84,73.52Zm0-5.4c1.68-.06,3.31-.05,4.93-.21a3,3,0,0,0,2.82-2.36,6,6,0,0,0,0-2.7,2.86,2.86,0,0,0-2.2-2.36,4.1,4.1,0,0,0-1-.19c-1.54,0-3.08,0-4.64,0Z"/></g></g></svg>